<svg width="26" height="24" viewBox="0 0 26 24" fill="none" xmlns="http://www.w3.org/2000/svg">
<path d="M7.784 23.384C6.26933 23.384 4.872 23.1067 3.592 22.552C2.33333 21.976 1.29867 21.1653 0.488 20.12L3.368 16.664C3.98667 17.4747 4.63733 18.0933 5.32 18.52C6.00267 18.9253 6.73867 19.128 7.528 19.128C9.64 19.128 10.696 17.8907 10.696 15.416V4.76H2.824V0.599998H15.848V15.128C15.848 17.9013 15.1653 19.9707 13.8 21.336C12.4347 22.7013 10.4293 23.384 7.784 23.384ZM22.2858 23.256C21.4324 23.256 20.6964 22.968 20.0778 22.392C19.4804 21.7947 19.1818 21.0373 19.1818 20.12C19.1818 19.2027 19.4804 18.4667 20.0778 17.912C20.6964 17.336 21.4324 17.048 22.2858 17.048C23.1604 17.048 23.8964 17.336 24.4938 17.912C25.0911 18.4667 25.3898 19.2027 25.3898 20.12C25.3898 21.0373 25.0911 21.7947 24.4938 22.392C23.8964 22.968 23.1604 23.256 22.2858 23.256Z" fill="black"/>
</svg>
